# xmcd
#
# Track frame offsets:
#	150
#	12365
#	24911
#	35796
#	45786
#	57635
#	69233
#	77192
#	87407
#	98077
#	110347
#	121441
#	133421
#	143208
#	154498
#	162605
#	170166
#	180267
#	192210
#	201690
#	210982
#	222766
#	231562
#	241494
#	252387
#	262499
#	273648
#	282379
#
# Disc length: 3906 seconds
#
# Revision: 0
# Processed by: cddbd v1.5.1PL2 Copyright (c) Steve Scherf et al.
# Submitted via: EasyCDDAExtractor 8.0.2.1
#
DISCID=b70f401c
DTITLE=Johnny Cash - Walk The Line [CD1)
DYEAR=2006
DGENRE=Country
TTITLE0=I Walk The Line
TTITLE1=Folsom Prison Blues
TTITLE2=Cry, Cry, Cry
TTITLE3=Get Rhythm
TTITLE4=Home Of The Blues
TTITLE5=So Doggone Lonesome
TTITLE6=Sugartime
TTITLE7=There You Go
TTITLE8=Train Of Love
TTITLE9=Next In Line
TTITLE10=Don't Make Me Go
TTITLE11=Give My Love To Rose
TTITLE12=Ballad Of A Teenage Queen
TTITLE13=Big River
TTITLE14=Guess Things Happen That Way
TTITLE15=Come In Stranger
TTITLE16=The Ways Of A Woman In Love
TTITLE17=You're The Nearest Thing To Heaven
TTITLE18=It's Just About Time
TTITLE19=Luther Played The Boogie
TTITLE20=Thanks A Lot
TTITLE21=Katy Too
TTITLE22=Goodbye, Little Darlin'
TTITLE23=I Love You Because
TTITLE24=Straight A's In Love
TTITLE25=Mean Eyed Cat
TTITLE26=Two Timin' Woman
TTITLE27=Wide Open Road
EXTD=
EXTT0=
EXTT1=
EXTT2=
EXTT3=
EXTT4=
EXTT5=
EXTT6=
EXTT7=
EXTT8=
EXTT9=
EXTT10=
EXTT11=
EXTT12=
EXTT13=
EXTT14=
EXTT15=
EXTT16=
EXTT17=
EXTT18=
EXTT19=
EXTT20=
EXTT21=
EXTT22=
EXTT23=
EXTT24=
EXTT25=
EXTT26=
EXTT27=
PLAYORDER=
